<?xml version="1.0" standalone="no"?>
<!DOCTYPE svg PUBLIC "-//W3C//DTD SVG 20010904//EN"
 "http://www.w3.org/TR/2001/REC-SVG-20010904/DTD/svg10.dtd">
<svg version="1.0" xmlns="http://www.w3.org/2000/svg"
 width="376.000000pt" height="430.000000pt" viewBox="0 0 376.000000 430.000000"
 preserveAspectRatio="xMidYMid meet">

<g transform="translate(0.000000,430.000000) scale(0.100000,-0.100000)"
fill="#000000" stroke="none">
<path d="M1849 3138 c-6 -13 -31 -52 -54 -88 -46 -69 -315 -535 -315 -544 0
-3 -83 -150 -185 -327 l-185 -321 0 -215 c0 -191 2 -214 16 -209 8 3 69 37
133 75 l119 69 7 -428 7 -428 122 70 c66 39 136 79 154 89 17 11 47 27 65 38
17 10 52 30 77 45 25 14 60 34 77 43 l33 17 2 330 3 331 210 121 c116 67 213
120 218 117 4 -2 7 -148 7 -324 l0 -320 43 25 c23 14 142 83 265 153 l222 128
0 431 0 432 -37 23 c-42 25 -48 29 -148 84 -38 21 -74 43 -80 49 -5 7 -72 47
-147 91 l-138 79 0 56 0 56 -135 80 c-74 43 -179 105 -233 136 -53 32 -100 58
-104 58 -4 0 -13 -10 -19 -22z"/>
</g>
</svg>
